<svg width="11" height="30" viewBox="0 0 11 30" fill="none" xmlns="http://www.w3.org/2000/svg">
<g id="Icon" clip-path="url(#clip0_1_283)">
<path id="Vector" d="M1.59417 20.6417C1.38085 20.6417 1.19849 20.5677 1.04709 20.4198C0.895701 20.2718 0.820004 20.0912 0.820004 19.8779C0.820004 19.6646 0.899141 19.4788 1.05742 19.3205L5.22759 15.1606L1.05742 11.0008C0.899141 10.8425 0.820004 10.6567 0.820004 10.4434C0.820004 10.23 0.895701 10.0494 1.04709 9.90145C1.19849 9.7535 1.38085 9.67953 1.59417 9.67953C1.79373 9.67953 1.97265 9.75178 2.13093 9.89629L6.83786 14.5826C7.00301 14.734 7.08559 14.9267 7.08559 15.1606C7.08559 15.3808 7.00301 15.5735 6.83786 15.7387L2.13093 20.425C1.98642 20.5695 1.8075 20.6417 1.59417 20.6417Z" fill="#0066CC"/>
</g>
<defs>
<clipPath id="clip0_1_283">
<rect width="9.51" height="29" fill="white" transform="matrix(1 0 0 -1 0.820004 29.64)"/>
</clipPath>
</defs>
</svg>
